<svg xmlns="http://www.w3.org/2000/svg" viewBox="0 0 793.45 398"><defs><style>.cls-1{fill:#fbc940;}.cls-2{fill:#c0d0e1;}.cls-3{fill:#fce299;}.cls-4{fill:#fcdc81;}.cls-5{fill:#fdeec4;}.cls-6{fill:#014586;}.cls-7{fill:#fab800;}.cls-8{fill:#fcdb7e;}</style></defs><title>logo</title><g id="Layer_2" data-name="Layer 2"><g id="Layer_1-2" data-name="Layer 1"><path class="cls-1" d="M536.49,0h26a5.57,5.57,0,0,0,.11.89H536.4A4.06,4.06,0,0,0,536.49,0Z"/><path class="cls-2" d="M126.49,398a3.82,3.82,0,0,0,0-.86h17.09a3.82,3.82,0,0,0,0,.86Z"/><path class="cls-3" d="M562.6.89a5.51,5.51,0,0,1-.11-.89h10a2.63,2.63,0,0,0,.07.88Z"/><path class="cls-4" d="M536.49,0a4.09,4.09,0,0,1-.08.9l-7,0a3.32,3.32,0,0,0,.07-.86Z"/><path class="cls-5" d="M529.49,0a3.33,3.33,0,0,1-.07.86h-5a4.23,4.23,0,0,0,0-.87Z"/><path class="cls-6" d="M143.53,397.14H126.44a233.11,233.11,0,0,1-99.79-27.19,25.5,25.5,0,0,1-2.44-1.65q16.25-25.5,34.46-49.66c1.15.65,2.33,1.26,3.46,1.95,19.23,11.77,39.71,20,62.39,21.9,13,1.08,26,1.26,38.24-4.14,5.75-2.53,10.19-6.41,10.7-13.22s-2.76-11.7-8.38-15.31c-6.36-4.09-13.38-6.59-20.53-8.77-20-6.12-40.82-9.15-60.95-14.89a50,50,0,0,0-12.89-4c-8.71-3.31-17.27-6.87-25.09-12.06-15.12-10-22.88-24.34-24.06-42.12C19.33,194.4,34.92,169.26,66.23,155c21.24-9.64,43.7-12.22,66.71-11.5a200.74,200.74,0,0,1,62.49,11.68c-1.43,1.6-2.8,3.25-4.3,4.79A521.66,521.66,0,0,0,155,200.6c-10.82-3.51-21.81-6-33.28-5.59-7.59.28-14.86,1.81-21.37,6-11.5,7.32-12.91,22.35,1.52,28.55,14,6,28.83,9.07,43.57,12.39,22.08,5,44.15,9.93,64.23,21,10.52,5.78,19.57,13.22,25.85,23.66.47.78.64,2,1.86,1.89a7.58,7.58,0,0,0,.28-2.36c.68-14.39,2.87-28.49,8.95-41.69,17-36.84,46.22-56.95,85.93-62.39a126.23,126.23,0,0,1,54.86,4.36c27.5,8.49,47,26.18,58.83,52.4.53,1.19,1.16,2.33,1.75,3.49a35.48,35.48,0,0,0,1.05-3.47c5.11-25.68,22.38-40.57,45.33-49.67,29.15-11.56,59.21-11.17,89.43-4.7,5.14,1.1,12,.87,14.71,4.8,2.37,3.41.79,9.62.83,14.6.06,8.5-.1,17,.07,25.5.07,3.39-.38,4.43-4,2.86a120.51,120.51,0,0,0-45.57-9.77c-9-.16-17.92,1-26.33,4.6a26.54,26.54,0,0,0-9.44,6.39c-5.63,6.21-4.56,13.51,2.83,17.43,9.36,5,19.75,6.86,30,9.12,17.85,4,35.92,7.05,52.92,14.1,11.18,4.63,21.56,10.49,29,20.52a11.36,11.36,0,0,0,1.31,1.29c1-1.33.36-2.82.29-4.2-1.5-27.48,7.64-51,26.53-70.75,20.47-21.41,46.19-32.65,74.87-37.83,19.15-3.46,38.42-3.15,57.73-1.27,3.35.33,4.05,1.52,4,4.59-.16,10.66-.06,21.33-.06,32,0,7.09,0,7.08-7.29,6.41-21.06-1.93-40.89,2.1-58.71,13.54-18.31,11.75-30.09,27.84-28.76,50.77,1,17.34,10.29,30.38,23.77,40.41,19.48,14.48,41.71,19.34,65.6,16.78,4.52-.48,5.64.33,5.5,4.89-.34,11.49-.22,23,0,34.49,0,3.13-.81,4.16-4.06,4.57-34.24,4.32-67.46,1.54-98.85-13.93-21.95-10.82-39.3-26.61-50.77-48.48-.45-.85-1-2.26-1.57-2.29-1-.05-.53,1.27-.57,1.93-1.16,19.09-10.65,33.7-25,45.42-20.45,16.72-44.58,23.41-70.48,24-28.53.68-55.77-5.81-82.12-16.45-2.67-1.08-3.79-2.36-3.75-5.41.18-14.66.15-29.33,0-44,0-3.2.2-4.1,3.63-2.31a183,183,0,0,0,80.47,20.63c9.33.26,18.64-.92,26.83-6.23,11.54-7.47,11.12-20.74-1.07-27-11.82-6.09-24.85-8.33-37.69-11.07-16.42-3.51-32.92-6.66-48.6-13-8.11-3.27-15.64-7.39-21.73-13.81-.54-.57-1.47-1.51-1.85-1.36-1.25.5-.32,1.68-.25,2.5a159.9,159.9,0,0,1,.06,22.44c-.22,3.82-1.74,4.42-5.18,4.41q-63.75-.18-127.5-.08c-6.67,0-13.34.24-20-.08-4.44-.22-4.53,1.35-3.27,4.88,7.81,21.76,24,32.75,46.13,36,15.48,2.29,30.55-.17,45.31-4.7,4.37-1.34,5.12-.32,5,4-.29,12-.11,24-.09,36,0,2,.32,3.84-2.54,4.49-30.71,7-61.32,8.93-91.46-2.44-26.92-10.16-46.09-28.56-57-55.32-.43-1.05-.95-2.07-1.43-3.11-1.15.91-.73,2.29-.9,3.43-5,33.1-26.64,50.71-56.42,60.68C172.74,394.65,158.22,396.5,143.53,397.14Zm205.41-127c15,0,30-.16,44.93.1,4.38.08,4.9-1.2,3.74-5a77.08,77.08,0,0,0-4.22-11.7c-9-18.3-29.11-28.22-51-25.33-25.44,3.36-37.89,20-42.91,38.79-.83,3.09.71,3.17,3,3.16C318,270.14,333.47,270.16,348.94,270.16Z"/><path class="cls-7" d="M155,200.6A521.66,521.66,0,0,1,191.13,160c1.5-1.53,2.87-3.19,4.3-4.79,36-34.7,75.36-64.92,118.79-89.75C366.83,35.39,422.79,14.64,482.78,5.26A412.14,412.14,0,0,1,524.45.87h5l7,0h36.16C628.33,4.34,681,19.46,731.37,43.18a423.07,423.07,0,0,1,58,32.93l-.92,1c-36.78-15.42-75.39-23.65-114.69-29.14A635.19,635.19,0,0,0,566.2,42.2C477,45,391.68,64.42,311.13,103.44A602.22,602.22,0,0,0,169,199.64C162.94,205.13,162.91,205.09,155,200.6Z"/><path class="cls-8" d="M788.45,77.07l.92-1A6.49,6.49,0,0,1,793,78.95C791.06,79.38,789.78,78.15,788.45,77.07Z"/><path class="cls-7" d="M58.67,318.64Q40.42,342.75,24.22,368.3c-8.16-3.87-15.36-9.24-22.74-14.35-2.33-1.61-1.55-2.68-.1-4.23C22.74,326.82,44.19,304,68.55,284.2c.77-.62,1.44-1.35,2.16-2a50,50,0,0,1,12.89,4Z"/></g></g></svg>