<?xml version="1.0" encoding="utf-8"?>
<!-- Generator: Adobe Illustrator 16.0.0, SVG Export Plug-In . SVG Version: 6.00 Build 0)  -->
<!DOCTYPE svg PUBLIC "-//W3C//DTD SVG 1.1//EN" "http://www.w3.org/Graphics/SVG/1.1/DTD/svg11.dtd">
<svg version="1.1" id="Camada_1" xmlns="http://www.w3.org/2000/svg" xmlns:xlink="http://www.w3.org/1999/xlink" x="0px" y="0px"
	 width="841.89px" height="595.275px" viewBox="0 0 841.89 595.275" enable-background="new 0 0 841.89 595.275"
	 xml:space="preserve">
<path fill-rule="evenodd" clip-rule="evenodd" fill="#D1D3D4" d="M124.865,87.202c4.455-0.415,8.789-0.623,13.004-0.623
	c4.215,0,8.609,0.208,13.185,0.623v36.637c-6.261,1.314-12.793,2.197-19.597,2.646c-6.803,0.45-12.733,0.675-17.792,0.675
	c-10.596,0-19.867-0.951-27.815-2.853c-7.946-1.903-14.569-4.567-19.868-7.993c-5.296-3.425-9.271-7.489-11.92-12.194
	c-2.649-4.705-3.974-9.825-3.974-15.36c0-5.536,1.386-10.673,4.154-15.414c2.77-4.739,6.773-8.838,12.012-12.298
	c5.237-3.458,11.679-6.158,19.325-8.095c7.646-1.937,16.346-2.905,26.1-2.905c5.779,0,11.167,0.207,16.165,0.623
	c4.997,0.415,10.205,1.28,15.624,2.594c-0.241,2.076-0.963,4.1-2.167,6.071c-1.205,1.973-2.53,3.962-3.974,5.968
	c-4.214-0.831-7.947-1.418-11.199-1.764c-3.25-0.346-7.104-0.52-11.559-0.52c-11.56,0-20.44,2.163-26.641,6.487
	c-6.203,4.324-9.303,10.742-9.303,19.253c0,8.51,3.07,14.858,9.212,19.043c6.141,4.187,15.171,6.279,27.093,6.279
	c2.045,0,3.883-0.069,5.508-0.208c1.625-0.138,3.1-0.277,4.425-0.415V87.202L124.865,87.202z M230.662,51.292
	c5.297-0.346,10.265-0.639,14.9-0.882c4.637-0.242,9.783-0.362,15.443-0.362c6.623,0,13.155,0.346,19.598,1.037
	c6.442,0.693,12.251,1.92,17.429,3.685c5.178,1.764,9.362,4.151,12.553,7.161c3.19,3.01,4.787,6.833,4.787,11.469
	c0,2.766-0.603,5.206-1.807,7.316c-1.204,2.111-2.738,3.961-4.606,5.553c-1.865,1.591-3.883,2.958-6.049,4.1
	c-2.168,1.142-4.216,2.059-6.141,2.75l-3.071,1.142l31.608,31.55c-2.409,0.139-4.937,0.278-7.586,0.416
	c-2.649,0.138-5.358,0.208-8.127,0.208c-4.575,0-9.092-0.208-13.547-0.623l-33.956-34.664l4.335-1.246
	c1.685-0.484,3.732-1.107,6.141-1.868c2.408-0.761,4.726-1.713,6.953-2.854c2.227-1.14,4.124-2.525,5.689-4.15
	c1.566-1.627,2.349-3.546,2.349-5.76c0-4.359-2.167-7.56-6.501-9.6c-4.336-2.042-9.934-3.062-16.798-3.062
	c-2.649,0-5.058,0.103-7.225,0.312v62.998c-2.168,0.137-4.334,0.259-6.502,0.363c-2.167,0.104-4.275,0.156-6.321,0.156
	c-2.047,0-4.214-0.034-6.502-0.104c-2.288-0.069-4.635-0.207-7.044-0.415V51.292L230.662,51.292z M394.257,51.292
	c2.288-0.208,4.515-0.346,6.682-0.415c2.167-0.068,4.395-0.104,6.684-0.104c2.046,0,4.153,0.035,6.321,0.104
	c2.167,0.069,4.395,0.208,6.684,0.415v38.712c0,4.22,0.271,7.836,0.813,10.846c0.542,3.009,1.625,5.5,3.251,7.473
	c1.627,1.972,3.912,3.424,6.864,4.359c2.949,0.934,6.772,1.4,11.47,1.4c4.695,0,8.488-0.467,11.378-1.4
	c2.89-0.935,5.148-2.387,6.772-4.359c1.625-1.973,2.709-4.464,3.252-7.473c0.541-3.01,0.813-6.626,0.813-10.846V51.292
	c2.408-0.208,4.696-0.346,6.863-0.415c2.166-0.068,4.274-0.104,6.32-0.104c2.168,0,4.367,0.035,6.595,0.104
	c2.226,0.069,4.484,0.208,6.773,0.415v41.929c0,5.051-0.724,9.67-2.167,13.856c-1.446,4.187-4.036,7.766-7.768,10.742
	c-3.734,2.975-8.729,5.275-14.991,6.901c-6.262,1.626-14.208,2.438-23.841,2.438c-9.634,0-17.582-0.812-23.842-2.438
	c-6.263-1.626-11.259-3.926-14.992-6.901c-3.732-2.977-6.321-6.556-7.766-10.742c-1.446-4.186-2.167-8.805-2.167-13.856V51.292
	L394.257,51.292z M571.396,50.981c5.54-0.277,11.14-0.502,16.799-0.675c5.658-0.173,11.379-0.259,17.159-0.259
	c6.021,0,12.129,0.346,18.333,1.037c6.199,0.693,11.8,1.99,16.797,3.892c4.997,1.902,9.061,4.55,12.191,7.941
	c3.132,3.389,4.695,7.784,4.695,13.179c0,5.397-1.563,9.774-4.695,13.13c-3.131,3.356-7.163,6.002-12.102,7.939
	c-4.937,1.938-10.444,3.252-16.527,3.944c-6.081,0.693-12.07,1.039-17.97,1.039c-1.566,0-3.039-0.018-4.425-0.052
	c-1.385-0.036-2.68-0.088-3.885-0.156v23.975c-2.288,0.208-4.515,0.345-6.681,0.415c-2.168,0.07-4.277,0.104-6.324,0.104
	c-1.926,0-4.033-0.034-6.32-0.104c-2.288-0.069-4.637-0.207-7.046-0.415V50.981L571.396,50.981z M597.768,89.381
	c1.444,0.139,2.8,0.208,4.065,0.208c1.263,0,2.799,0,4.604,0c3.012,0,5.96-0.224,8.852-0.674c2.89-0.45,5.447-1.194,7.675-2.231
	c2.227-1.039,4.004-2.404,5.328-4.1s1.987-3.789,1.987-6.279c0-2.56-0.663-4.722-1.987-6.486c-1.324-1.765-3.102-3.183-5.328-4.256
	c-2.228-1.072-4.785-1.833-7.675-2.282c-2.892-0.45-5.84-0.675-8.852-0.675c-1.324,0-2.558,0.018-3.702,0.052
	c-1.144,0.034-2.8,0.121-4.968,0.26V89.381L597.768,89.381z M784.845,127.159c-9.754,0-18.184-0.969-25.287-2.905
	c-7.106-1.939-12.944-4.619-17.521-8.044c-4.576-3.424-7.978-7.472-10.204-12.142c-2.229-4.671-3.343-9.773-3.343-15.308
	c0-5.536,1.114-10.673,3.343-15.414c2.227-4.739,5.628-8.838,10.204-12.298c4.576-3.458,10.414-6.158,17.521-8.095
	c7.104-1.937,15.533-2.905,25.287-2.905c9.753,0,18.18,0.968,25.284,2.905c7.105,1.938,12.945,4.637,17.521,8.095
	c4.576,3.46,7.977,7.56,10.204,12.298c2.229,4.741,3.343,9.877,3.343,15.414c0,5.535-1.113,10.637-3.343,15.308
	c-2.228,4.67-5.628,8.718-10.204,12.142c-4.576,3.425-10.416,6.105-17.521,8.044C803.024,126.19,794.598,127.159,784.845,127.159
	L784.845,127.159z M784.845,114.497c18.663,0,27.995-8.58,27.995-25.737c0-8.581-2.258-15.015-6.774-19.305
	c-4.516-4.291-11.528-6.436-21.04-6.436c-18.906,0-28.357,8.581-28.357,25.74C756.668,105.917,766.058,114.497,784.845,114.497z"/>
<g>
	<path fill-rule="evenodd" clip-rule="evenodd" fill="#002661" d="M254.914,430.385c-0.038,5.718-0.265,11.372-0.733,17.079
		c-0.508,5.197-1.21,10.296-2.182,15.437c-0.977,4.678-2.147,9.212-3.607,13.771c-0.968,2.801-2.014,5.532-3.18,8.267
		c-1.75,3.846-3.667,7.456-5.907,11.049c-1.11,1.68-2.257,3.314-3.465,4.935c-2.262,2.866-4.656,5.491-7.239,8.088
		c-2.226,2.071-4.479,4.008-6.862,5.914c-2.527,1.866-5.068,3.607-7.729,5.292c-2.833,1.665-5.672,3.203-8.616,4.68
		c-3.143,1.454-6.281,2.786-9.515,4.05c-3.453,1.24-6.899,2.364-10.421,3.416c-3.765,1.02-7.518,1.934-11.335,2.771
		c-5.502,1.076-10.968,1.95-16.536,2.675c-6.055,0.671-12.071,1.155-18.156,1.495c-4.902,0.192-9.789,0.3-14.699,0.338H2.371
		l30.309-78.387l91.07-0.025c4.206-0.118,8.287-0.425,12.443-1.044c2.418-0.429,4.732-0.951,7.086-1.625
		c2.673-0.873,5.064-1.87,7.524-3.22c1.798-1.119,3.323-2.26,4.884-3.68c1.068-1.114,1.973-2.198,2.871-3.442
		c0.81-1.307,1.46-2.549,2.071-3.952l0.904-2.858c0.533-2.526,0.747-4.841,0.657-7.416c-0.142-1.373-0.358-2.628-0.672-3.969
		c-0.838-2.836-1.96-5.272-3.438-7.842c-1.771-2.834-3.714-5.384-5.893-7.925c-3.592-4.008-7.439-7.623-11.523-11.137
		c-5.079-4.258-10.339-8.225-15.751-12.063c-16.373-11.454-32.704-23.012-48.512-35.253c-4.44-3.476-8.837-7.004-13.081-10.74
		c-4.196-3.781-8.078-7.857-11.845-12.083c-3.604-4.201-6.931-8.473-10.075-13.042c-1.888-2.88-3.654-5.781-5.334-8.797
		c-2.295-4.362-4.252-8.71-5.961-13.344c-1.006-2.984-1.877-5.944-2.634-9.01c-0.994-4.582-1.636-9.041-1.968-13.728
		c-0.475-11.057,0.456-22.079,2.548-32.943c0.618-2.826,1.301-5.604,2.068-8.399c1.348-4.42,2.877-8.627,4.729-12.868
		c1.513-3.205,3.125-6.254,4.929-9.303c1.867-2.94,3.809-5.705,5.95-8.453c1.661-1.999,3.355-3.908,5.141-5.8
		c3.059-3.035,6.191-5.79,9.592-8.437c2.485-1.839,4.993-3.551,7.607-5.194c4.086-2.433,8.193-4.544,12.543-6.467
		c3.022-1.255,6.043-2.385,9.141-3.43c4.932-1.547,9.841-2.786,14.901-3.81c5.45-0.995,10.842-1.703,16.353-2.194
		c4.931-0.356,9.824-0.538,14.76-0.577h122.921l-34.016,78.39l-86.967,0.017c-3.369,0.118-6.562,0.479-9.847,1.278
		c-3.034,0.847-5.695,1.934-8.354,3.638l-1.888,1.508c-1.839,1.834-3.029,3.585-4.082,5.958l-0.769,2.316
		c-0.686,2.937-0.944,5.735-0.542,8.725c0.277,1.248,0.612,2.363,1.058,3.552c1.33,3.006,3.016,5.494,5.05,8.052
		c6.867,8.125,15.416,14.677,23.976,20.894c9.005,6.41,18.271,12.458,27.37,18.723c10.506,7.28,20.926,14.671,31.077,22.426
		c4.793,3.699,9.5,7.462,14.039,11.459c4.505,4.061,8.718,8.395,12.789,12.877c3.771,4.311,7.266,8.7,10.563,13.374
		c1.979,2.943,3.829,5.907,5.587,8.973c2.001,3.7,3.771,7.394,5.375,11.271c0.858,2.26,1.647,4.507,2.377,6.801
		c1.093,3.8,1.937,7.515,2.576,11.406c0.414,3.091,0.685,6.11,0.823,9.219L254.914,430.385z"/>
	<path fill-rule="evenodd" clip-rule="evenodd" fill="#002661" d="M600.52,543.816V375.503c29.25-5.576,58.259-9.603,86.925-12.323
		v22.198v158.438H600.52L600.52,543.816z M600.52,293.317V168.613h241.37l-31.075,76.845h-123.37V269
		C658.866,275.594,629.861,283.607,600.52,293.317z"/>
	<path fill-rule="evenodd" clip-rule="evenodd" fill="#002661" d="M382.868,168.613L248.176,500.358
		c43.541-38.78,87.208-71.926,130.708-100.187l30.84-80.327l20.188,49.322c24.493-13.896,48.895-26.345,73.151-37.481
		L431.98,168.613H382.868L382.868,168.613z M231.174,543.825c40.931-31.868,82.256-58.67,123.693-81.104l-31.137,81.104H231.174
		L231.174,543.825z M450.118,418.537c26.506-10.322,52.964-19.035,79.304-26.383l66.112,151.671h-94.135L450.118,418.537z"/>
</g>
<path fill-rule="evenodd" clip-rule="evenodd" fill="#002661" d="M616.938,372.295c52.445-11.341,107.571-20.001,166.617-24.745
	v55.266H675.502L616.938,372.295z"/>
</svg>
