<?xml version="1.0" encoding="utf-8"?>
<svg xmlns="http://www.w3.org/2000/svg" width="240" height="77.992" viewBox="0 0 240 77.992"><defs><style>.a{fill:#f60;fill-rule:evenodd;}</style></defs><path class="a" d="M200.683,13.077h27.11A12.245,12.245,0,0,1,240,25.284v52.7H226.28V32.736a6.739,6.739,0,0,0-13.477-.148v45.4H200.691V32.736a6.738,6.738,0,0,0-13.477,0V77.983l-56.107-.322a19.372,19.372,0,1,1,0-38.744h15.424a6.457,6.457,0,0,0,.191-12.912H107.067V77.992H93.346V26H50.7a6.705,6.705,0,0,0-6.46,6.46,6.7,6.7,0,0,0,6.46,6.46h19.05a19.372,19.372,0,0,1,0,38.744H0V64.741H69.749a6.46,6.46,0,0,0,0-12.92H50.7A19.2,19.2,0,0,1,31.327,32.449,19.2,19.2,0,0,1,50.7,13.077H93.32V0h13.72V13.077H154.5A12.245,12.245,0,0,1,166.7,25.284V64.741h6.782V25.284a12.246,12.246,0,0,1,12.207-12.207h14.99ZM124.639,58.289a6.705,6.705,0,0,0,6.46,6.46h21.876V51.829H131.1A6.7,6.7,0,0,0,124.639,58.289Z"/></svg>