<svg xmlns="http://www.w3.org/2000/svg" width="87.521" height="33.4" viewBox="0 0 87.521 33.4">
  <g id="Camada_x0020_1" transform="translate(-1012.63 -5219.02)">
    <g id="_1778798271440" transform="translate(1012.63 5219.02)">
      <g id="Group_1" data-name="Group 1">
        <path id="Path_1" data-name="Path 1" d="M2789.714,5224.876l-6.062,4.482.024.017-3.842,2.828-11.005-7.734.027-5.45,10.925,7.634,9.938-7.388Z" transform="translate(-2763.276 -5219.02)" fill="#373435" fill-rule="evenodd"/>
        <path id="Path_2" data-name="Path 2" d="M1040.467,8912.93l4.16-4.67h-32l4.287,4.67Z" transform="translate(-1012.63 -8896.593)" fill="#373435" fill-rule="evenodd"/>
        <path id="Path_3" data-name="Path 3" d="M2789.714,11619.286l-6.062-4.482.024-.017-3.842-2.828-11.005,7.733.027,5.45,10.925-7.634,9.938,7.389Z" transform="translate(-2763.276 -11591.742)" fill="#373435" fill-rule="evenodd"/>
        <path id="Path_4" data-name="Path 4" d="M1040.467,10614.94l4.16,4.67h-32l4.287-4.67Z" transform="translate(-1012.63 -10597.876)" fill="#373435" fill-rule="evenodd"/>
      </g>
      <g id="Group_2" data-name="Group 2" transform="translate(36.726 6.154)">
        <path id="Path_5" data-name="Path 5" d="M12625.84,7176.024h3.645v-6.514l0-.221c3.693.1,6.333-.657,8.036,2.882a7.712,7.712,0,0,1,.8,4.241,6.559,6.559,0,0,1-1.007,3.491,4.9,4.9,0,0,1-2.646,1.93c-1.566.493-6.942.317-8.833.317v4.033h7.755a10,10,0,0,0,6.879-3.047c2.8-3.315,3.356-9.791.769-13.673-2.075-3.112-4.73-4.373-8.733-4.373h-6.669Z" transform="translate(-12625.84 -7165.09)" fill="#373435" fill-rule="evenodd"/>
        <path id="Path_6" data-name="Path 6" d="M18633.59,7235.058h11.4v-4.033h-6.5l-.014-16.905h-4.885Z" transform="translate(-18614.592 -7213.964)" fill="#373435" fill-rule="evenodd"/>
        <path id="Path_7" data-name="Path 7" d="M24665.867,7225.365c.178.264.395.521.6.8l6.594,8.893,5.525,0-5.641-7.776c-2.26-3.043-2.111-2.426-1.045-4.027,1.881-2.9,4.277-6.234,6.064-9.135h-5.041l-3.514,5.636c-.156.264-.262.406-.416.669l-1.328,2.162c-.3.469-.57.932-.869,1.381Z" transform="translate(-24627.791 -7213.966)" fill="#373435" fill-rule="evenodd"/>
        <path id="Path_8" data-name="Path 8" d="M22875.787,7235.058h4.887V7214.12h-4.887Z" transform="translate(-22843.373 -7213.964)" fill="#373435" fill-rule="evenodd"/>
      </g>
    </g>
  </g>
</svg>
